<mxfile host="app.diagrams.net" modified="2024-04-10T01:06:21.256Z" agent="Mozilla/5.0 (Macintosh; Intel Mac OS X 10_15_7) AppleWebKit/537.36 (KHTML, like Gecko) Chrome/123.0.0.0 Safari/537.36" version="24.2.3" etag="krezrLWyXxpx9TjMpNkT" type="github">
  <diagram name="第 1 页" id="ctu8Cr7vQXhWMU4yhK3U">
    <mxGraphModel>
      <root>
        <mxCell id="0" />
        <mxCell id="1" parent="0" />
      </root>
    </mxGraphModel>
  </diagram>
</mxfile>
